<svg width="10" height="10" viewBox="0 0 10 10" fill="none" xmlns="http://www.w3.org/2000/svg">
<g clip-path="url(#clip0_151_139)">
<path d="M6.34666 6.54321C6.14756 6.54321 5.95984 6.58445 5.7835 6.66694C5.60715 6.74942 5.45641 6.85608 5.33126 6.98692L3.39432 5.85206C3.39432 5.77811 3.40143 5.71127 3.41565 5.65154C3.42987 5.59181 3.43698 5.52497 3.43698 5.45102C3.43698 5.38275 3.42845 5.31734 3.41138 5.25476C3.39432 5.19219 3.37725 5.12393 3.36019 5.04998L5.2886 3.92365C5.4365 4.05448 5.60004 4.15972 5.77923 4.23936C5.95842 4.319 6.14756 4.35882 6.34666 4.35882C6.74486 4.35882 7.08759 4.21661 7.37486 3.93218C7.66213 3.64775 7.80577 3.30644 7.80577 2.90825C7.80577 2.50436 7.66213 2.16021 7.37486 1.87578C7.08759 1.59135 6.74486 1.44914 6.34666 1.44914C5.94846 1.44914 5.60573 1.59135 5.31846 1.87578C5.03119 2.16021 4.88756 2.50436 4.88756 2.90825C4.88756 2.97651 4.89609 3.04193 4.91315 3.1045C4.93022 3.16707 4.94728 3.23534 4.96435 3.30929L2.99328 4.43562C2.86813 4.30478 2.71738 4.19954 2.54104 4.1199C2.36469 4.04026 2.17697 4.00044 1.97787 4.00044C1.57968 4.00044 1.23694 4.14266 0.949674 4.42708C0.662404 4.71151 0.518768 5.05282 0.518768 5.45102C0.518768 5.8549 0.662404 6.19906 0.949674 6.48348C1.23694 6.76791 1.57968 6.91012 1.97787 6.91012C2.17697 6.91012 2.36469 6.86888 2.54104 6.7864C2.71738 6.70391 2.86813 6.6001 2.99328 6.47495L4.93022 7.60128C4.93022 7.67523 4.92311 7.74207 4.90889 7.8018C4.89467 7.86153 4.88756 7.92837 4.88756 8.00232C4.88756 8.40052 5.03119 8.74325 5.31846 9.03052C5.60573 9.31779 5.94846 9.46143 6.34666 9.46143C6.74486 9.46143 7.08759 9.31779 7.37486 9.03052C7.66213 8.74325 7.80577 8.40052 7.80577 8.00232C7.80577 7.60412 7.66213 7.26139 7.37486 6.97412C7.08759 6.68685 6.74486 6.54321 6.34666 6.54321ZM6.34666 2.17443C6.54576 2.17443 6.71642 2.24553 6.85863 2.38775C7.00084 2.52996 7.07195 2.70346 7.07195 2.90825C7.07195 3.10734 7.00084 3.278 6.85863 3.42021C6.71642 3.56243 6.54576 3.63353 6.34666 3.63353C6.14756 3.63353 5.97691 3.56243 5.83469 3.42021C5.69248 3.278 5.62137 3.10734 5.62137 2.90825C5.62137 2.70346 5.69248 2.52996 5.83469 2.38775C5.97691 2.24553 6.14756 2.17443 6.34666 2.17443ZM1.97787 6.18484C1.77878 6.18484 1.60812 6.11373 1.46591 5.97152C1.32369 5.8293 1.25259 5.6558 1.25259 5.45102C1.25259 5.25192 1.32369 5.08126 1.46591 4.93905C1.60812 4.79684 1.77878 4.72573 1.97787 4.72573C2.17697 4.72573 2.34763 4.79684 2.48984 4.93905C2.63206 5.08126 2.70316 5.25192 2.70316 5.45102C2.70316 5.6558 2.63206 5.8293 2.48984 5.97152C2.34763 6.11373 2.17697 6.18484 1.97787 6.18484ZM6.34666 8.72761C6.14756 8.72761 5.97691 8.6565 5.83469 8.51429C5.69248 8.37207 5.62137 8.20142 5.62137 8.00232C5.62137 7.92837 5.62991 7.86295 5.64697 7.80607C5.66404 7.74918 5.68964 7.69229 5.72377 7.63541C5.78065 7.52733 5.8674 7.44058 5.98402 7.37516C6.10063 7.30974 6.22151 7.27703 6.34666 7.27703C6.54576 7.27703 6.71642 7.34814 6.85863 7.49035C7.00084 7.63257 7.07195 7.80322 7.07195 8.00232C7.07195 8.20142 7.00084 8.37207 6.85863 8.51429C6.71642 8.6565 6.54576 8.72761 6.34666 8.72761Z" fill="#818181"/>
</g>
<defs>
<clipPath id="clip0_151_139">
<rect width="8.73757" height="8.73757" fill="white" transform="matrix(1 0 0 -1 0.518768 9.64062)"/>
</clipPath>
</defs>
</svg>
