<svg width="10" height="10" viewBox="0 0 10 10" fill="none" xmlns="http://www.w3.org/2000/svg">
<g clip-path="url(#clip0_151_127)">
<path d="M4.34486 1.00236C3.78739 1.00236 3.26689 1.1076 2.78336 1.31808C2.29415 1.52286 1.86893 1.80729 1.50771 2.17135C1.14649 2.53542 0.860643 2.95921 0.650167 3.44274C0.445381 3.93195 0.342987 4.45245 0.342987 5.00424C0.342987 5.56171 0.445381 6.08221 0.650167 6.56574C0.860643 7.05495 1.14649 7.48017 1.50771 7.84139C1.86893 8.20261 2.29415 8.48846 2.78336 8.69894C3.26689 8.90941 3.78739 9.01465 4.34486 9.01465C4.90234 9.01465 5.42284 8.90941 5.90636 8.69894C6.39558 8.48846 6.82079 8.20261 7.18202 7.84139C7.54324 7.48017 7.82909 7.05495 8.03956 6.56574C8.24435 6.08221 8.34674 5.56171 8.34674 5.00424C8.34674 4.45245 8.24435 3.93195 8.03956 3.44274C7.82909 2.95921 7.54324 2.53542 7.18202 2.17135C6.82079 1.80729 6.39558 1.52286 5.90636 1.31808C5.42284 1.1076 4.90234 1.00236 4.34486 1.00236ZM4.34486 8.28083C3.88978 8.28083 3.46314 8.1955 3.06495 8.02485C2.66675 7.85419 2.31975 7.62096 2.02395 7.32516C1.72814 7.02935 1.49491 6.68235 1.32426 6.28416C1.1536 5.88596 1.06827 5.45932 1.06827 5.00424C1.06827 4.54916 1.1536 4.12252 1.32426 3.72432C1.49491 3.32612 1.72814 2.97912 2.02395 2.68332C2.31975 2.38752 2.66675 2.15429 3.06495 1.98363C3.46314 1.81298 3.88978 1.72765 4.34486 1.72765C4.79995 1.72765 5.22659 1.81298 5.62478 1.98363C6.02298 2.15429 6.36998 2.38752 6.66578 2.68332C6.96159 2.97912 7.19481 3.32612 7.36547 3.72432C7.53613 4.12252 7.62145 4.54916 7.62145 5.00424C7.62145 5.45932 7.53613 5.88596 7.36547 6.28416C7.19481 6.68235 6.96159 7.02935 6.66578 7.32516C6.36998 7.62096 6.02298 7.85419 5.62478 8.02485C5.22659 8.1955 4.79995 8.28083 4.34486 8.28083ZM5.94903 5.40528L4.71177 4.79092V2.81985C4.71177 2.71176 4.67764 2.62501 4.60938 2.5596C4.54112 2.49418 4.45295 2.46147 4.34486 2.46147C4.23678 2.46147 4.14861 2.49418 4.08035 2.5596C4.01209 2.62501 3.97795 2.71176 3.97795 2.81985V5.00424C3.97795 5.07819 3.99644 5.14219 4.03342 5.19623C4.07039 5.25027 4.12586 5.2972 4.19981 5.33702L5.65891 6.0623C5.67598 6.07937 5.69447 6.08932 5.71438 6.09217C5.73429 6.09501 5.76415 6.09644 5.80397 6.09644C5.87223 6.09644 5.93481 6.07937 5.99169 6.04524C6.04858 6.01111 6.09409 5.95707 6.12822 5.88312C6.16235 5.80917 6.16377 5.72526 6.13248 5.6314C6.1012 5.53754 6.04004 5.46217 5.94903 5.40528Z" fill="#818181"/>
</g>
<defs>
<clipPath id="clip0_151_127">
<rect width="8.73757" height="8.73757" fill="white" transform="matrix(1 0 0 -1 0.342987 9.19385)"/>
</clipPath>
</defs>
</svg>
